<svg xmlns="http://www.w3.org/2000/svg" width="469" height="392" viewBox="0 0 469 392">
<g>
<path d="M 233.00 197.33 C227.23,197.75 220.70,198.28 218.50,198.51 C214.96,198.88 214.84,198.83 217.50,198.08 C219.98,197.38 220.11,197.22 218.25,197.12 C217.01,197.05 216.00,196.56 216.00,196.02 C216.00,195.48 214.86,194.75 213.46,194.40 C210.59,193.68 210.67,191.69 213.58,191.14 C217.32,190.45 219.70,187.00 216.44,187.00 C215.58,187.00 215.16,186.55 215.50,186.00 C215.84,185.45 215.12,185.00 213.89,185.00 C212.67,185.00 211.85,184.83 212.08,184.62 C212.31,184.41 217.00,184.00 222.50,183.71 C228.00,183.43 230.48,183.51 228.00,183.90 C223.51,184.60 223.52,184.60 230.28,185.05 C234.01,185.30 238.51,185.08 240.28,184.56 L 243.50 183.62 L 239.50 182.90 C236.11,182.29 236.46,182.21 241.75,182.34 C245.19,182.43 248.00,182.25 248.00,181.93 C248.00,181.62 252.39,180.85 257.75,180.22 C292.72,176.10 319.97,160.74 322.52,143.69 C323.41,137.76 320.74,131.18 317.14,130.43 C311.16,129.18 308.21,127.16 307.00,123.50 C306.07,120.67 306.07,119.23 307.04,116.90 C308.57,113.22 310.74,112.00 315.79,112.00 C318.92,112.00 320.94,112.95 325.90,116.74 C333.23,122.36 336.91,128.88 337.71,137.71 C339.62,158.82 322.54,177.58 292.46,187.42 C282.45,190.70 257.96,195.50 257.13,194.36 C256.33,193.27 254.06,192.65 251.50,192.84 C248.31,193.07 241.61,193.67 240.25,193.84 C238.14,194.11 238.87,195.84 241.25,196.21 C242.49,196.41 238.77,196.91 233.00,197.33 ZM 110.20 134.20 C109.53,134.87 107.02,135.91 104.60,136.52 L 100.21 137.64 L 100.64 133.96 C100.92,131.48 100.56,129.88 99.53,129.02 C97.39,127.25 97.62,123.27 99.93,122.04 C102.81,120.49 102.91,120.62 102.51,125.50 C102.09,130.65 103.20,131.21 107.36,127.93 C109.05,126.60 110.71,126.09 112.01,126.50 C113.47,126.97 115.46,126.01 119.15,123.07 C121.96,120.83 125.07,119.00 126.06,119.00 C127.05,119.00 128.14,118.15 128.47,117.10 C128.92,115.67 131.79,114.47 140.28,112.15 C152.14,108.91 171.43,105.00 175.55,105.00 C178.46,105.00 178.58,104.18 176.25,100.09 C174.66,97.30 174.64,96.78 176.03,94.26 C178.81,89.24 182.55,89.93 194.25,97.60 C205.61,105.07 206.92,106.35 206.97,110.05 C207.01,113.18 189.87,132.74 186.31,133.64 C183.56,134.33 179.42,131.91 178.53,129.10 C178.19,128.03 178.58,125.54 179.40,123.57 C180.87,120.07 180.85,120.00 178.57,120.00 C175.08,120.00 155.41,123.56 148.00,125.53 C144.43,126.48 137.68,127.37 133.00,127.52 C121.98,127.86 117.52,128.76 115.41,131.10 C114.46,132.15 113.17,133.00 112.55,133.00 C111.92,133.00 110.86,133.54 110.20,134.20 ZM 221.59 171.50 C221.93,172.88 221.94,174.00 221.61,174.00 C221.27,174.00 221.00,173.46 221.00,172.79 C221.00,172.13 219.31,169.77 217.25,167.55 C214.17,164.23 214.07,164.03 216.74,166.43 C221.03,170.30 222.08,169.00 218.23,164.61 C216.56,162.70 214.89,161.44 214.53,161.80 C213.68,162.65 215.51,157.85 217.50,153.99 C218.88,151.34 222.00,149.78 222.00,151.75 C222.00,152.16 223.98,152.58 226.39,152.67 C230.05,152.81 231.24,152.36 233.57,149.92 C236.02,147.37 236.33,146.34 236.11,141.60 L 235.86 136.19 L 241.47 134.10 C244.55,132.94 247.44,132.00 247.89,132.00 C248.34,132.00 250.10,134.25 251.81,137.00 C254.80,141.81 255.09,142.00 259.47,142.00 C263.64,142.00 264.25,141.67 266.76,138.05 C268.27,135.88 269.98,133.90 270.57,133.65 C271.15,133.41 274.08,134.40 277.07,135.85 L 282.50 138.50 L 282.24 144.50 C282.03,149.56 282.36,150.97 284.38,153.47 C286.54,156.16 287.35,156.45 292.64,156.47 C297.76,156.50 298.50,156.74 298.50,158.43 C298.50,160.59 290.95,164.88 282.59,167.47 L 277.68 168.99 L 274.15 164.86 C270.10,160.13 262.13,156.02 257.00,156.02 C251.97,156.02 243.89,160.12 240.05,164.62 C238.24,166.75 237.10,167.82 237.53,167.00 C237.95,166.18 239.02,164.63 239.90,163.57 C241.48,161.66 241.47,161.66 238.76,163.57 C237.24,164.64 235.57,167.12 235.00,169.15 C234.44,171.15 233.27,173.07 232.41,173.40 C230.39,174.17 224.48,174.19 225.25,173.42 C225.82,172.85 222.53,169.00 221.48,169.00 C221.20,169.00 221.24,170.12 221.59,171.50 ZM 217.99 95.01 C215.75,96.20 211.98,96.27 210.21,95.15 C209.50,94.70 208.54,93.02 208.09,91.41 C206.04,84.17 218.91,68.79 232.38,62.40 C238.77,59.36 241.20,58.77 249.18,58.32 C263.56,57.50 278.72,62.01 288.00,69.85 L 291.50 72.81 L 289.00 73.30 C274.58,76.12 274.19,76.14 270.25,74.13 C264.73,71.31 255.00,69.64 248.68,70.43 C241.95,71.28 232.58,75.69 228.09,80.13 C226.22,81.98 223.60,85.86 222.27,88.76 C220.94,91.65 219.01,94.46 217.99,95.01 ZM 151.41 102.41 C144.08,104.25 144.00,104.26 144.00,103.18 C144.00,100.77 147.59,90.75 150.26,85.71 C156.00,74.86 171.08,63.84 184.10,60.98 C190.41,59.59 213.46,60.00 216.18,61.55 C217.65,62.38 217.24,63.16 213.10,67.50 L 208.33 72.50 L 197.91 72.57 C186.11,72.66 179.11,74.74 171.73,80.38 C166.48,84.38 160.65,91.99 159.00,97.01 C157.81,100.60 157.37,100.91 151.41,102.41 ZM 106.59 116.11 C104.83,118.35 102.29,117.94 101.05,115.21 C100.42,113.82 100.26,112.42 100.70,112.09 C101.14,111.77 101.61,110.38 101.75,109.00 C101.95,107.05 101.79,106.83 101.02,108.00 C100.48,108.82 100.02,109.14 100.02,108.70 C99.98,106.76 107.12,97.05 111.11,93.63 C117.17,88.43 130.24,82.18 137.80,80.86 C141.27,80.26 144.29,79.96 144.52,80.19 C145.24,80.91 140.18,92.46 138.81,93.25 C138.09,93.66 134.91,94.93 131.75,96.07 C124.27,98.77 116.73,104.80 113.26,110.85 C111.51,113.91 109.98,115.50 109.09,115.20 C108.31,114.94 107.19,115.35 106.59,116.11 ZM 294.67 215.35 C289.58,219.43 286.34,221.22 290.50,217.65 L 293.50 215.07 L 289.25 215.04 C285.37,215.00 285.00,214.78 285.00,212.44 C285.00,210.69 284.60,210.10 283.75,210.57 C283.06,210.94 284.78,209.21 287.56,206.72 C290.34,204.22 293.47,200.28 294.52,197.95 C296.16,194.32 297.34,193.32 302.86,190.84 C306.39,189.25 309.53,188.20 309.82,188.49 C310.95,189.61 306.77,200.12 302.89,205.93 C300.66,209.27 296.96,213.51 294.67,215.35 ZM 260.00 223.00 C260.00,223.55 258.85,224.00 257.44,224.00 C255.99,224.00 255.15,223.57 255.50,223.00 C255.84,222.45 256.99,222.00 258.06,222.00 C259.13,222.00 260.00,222.45 260.00,223.00 ZM 144.26 174.23 C144.56,175.03 144.46,176.25 144.03,176.95 C142.86,178.84 141.68,176.40 142.80,174.40 C143.56,173.04 143.79,173.01 144.26,174.23 ZM 99.97 110.50 C99.97,111.05 99.53,112.18 99.00,113.00 C98.47,113.82 98.03,114.05 98.03,113.50 C98.03,112.95 98.47,111.82 99.00,111.00 C99.53,110.18 99.97,109.95 99.97,110.50 Z" fill="rgb(50,157,199)"/>
<path d="M 219.95 295.45 C192.91,300.58 165.36,290.14 154.94,270.81 C151.80,264.98 151.54,263.81 151.52,255.50 C151.50,247.52 151.80,245.98 154.18,241.94 C163.08,226.81 185.28,217.51 215.50,216.27 L 228.50 215.74 L 228.14 221.12 C227.94,224.08 227.27,226.83 226.64,227.23 C226.01,227.64 223.15,227.98 220.28,227.98 C204.71,228.03 182.60,233.36 173.26,239.31 C160.71,247.31 160.31,261.66 172.32,272.72 C176.50,276.58 183.73,281.00 185.85,281.00 C186.36,281.00 185.71,278.41 184.41,275.25 C178.88,261.81 183.81,247.05 194.36,245.47 C211.02,242.97 223.11,261.46 212.71,273.55 L 210.49 276.13 L 207.64 273.14 C204.92,270.30 204.86,270.04 206.39,267.86 C210.48,262.01 205.53,253.58 198.36,254.19 C184.41,255.37 190.62,283.11 205.19,284.70 C212.29,285.48 240.00,278.65 240.00,276.13 C240.00,275.73 238.36,274.81 236.35,274.08 C232.07,272.53 224.85,265.46 223.01,261.01 C221.41,257.17 222.94,253.00 225.94,253.00 C228.10,253.00 228.90,253.75 232.29,258.97 C235.74,264.28 243.00,268.30 250.09,268.81 C255.28,269.19 256.55,268.90 260.11,266.55 C262.35,265.06 264.26,264.00 264.35,264.18 C264.44,264.35 266.00,266.41 267.80,268.74 L 271.08 272.98 L 265.79 276.34 C250.13,286.30 235.08,292.58 219.95,295.45 ZM 110.20 134.20 C110.86,133.54 111.92,133.00 112.55,133.00 C113.17,133.00 114.46,132.15 115.41,131.10 C117.52,128.76 121.98,127.86 133.00,127.52 C137.68,127.37 144.43,126.48 148.00,125.53 C150.19,124.94 153.46,124.22 157.07,123.49 C145.37,126.09 132.10,129.68 124.00,132.70 C101.42,141.13 87.83,151.18 78.74,166.18 C75.15,172.12 72.55,178.89 73.51,179.84 C73.76,180.09 75.95,178.45 78.39,176.21 C85.38,169.77 95.24,165.58 108.30,163.50 C110.39,163.16 112.34,162.27 112.63,161.52 C113.46,159.35 119.87,156.75 122.67,157.45 C124.05,157.80 126.26,159.25 127.59,160.69 C135.20,168.90 123.42,180.84 114.58,173.88 C112.07,171.91 111.45,171.84 105.69,172.93 C92.74,175.37 80.71,183.55 76.61,192.71 C74.38,197.72 75.23,200.81 80.28,205.97 C87.56,213.42 99.96,217.20 117.74,217.38 C118.70,217.39 119.58,217.39 120.40,217.40 C126.24,217.44 128.64,217.46 129.23,218.50 C129.63,219.22 129.16,220.44 128.36,222.51 C128.20,222.93 128.03,223.38 127.85,223.87 C126.96,226.23 126.93,226.23 114.23,225.69 C107.23,225.38 100.22,224.82 98.65,224.43 L 95.81 223.73 L 97.37 226.76 C100.42,232.65 112.81,239.98 119.79,240.01 C125.26,240.04 126.57,240.96 128.01,245.82 C128.77,248.39 129.57,251.06 129.77,251.75 C130.19,253.14 129.23,253.15 120.55,251.89 C101.67,249.14 86.67,237.98 82.48,223.56 C81.19,219.15 80.42,218.19 76.46,216.09 C71.37,213.39 64.86,206.16 62.27,200.35 C60.99,197.48 60.57,193.81 60.59,186.00 C60.63,176.61 60.97,174.65 63.81,167.46 C68.79,154.85 77.69,143.97 90.64,134.66 L 95.63 131.08 L 96.85 121.90 C97.24,118.94 97.81,116.17 98.57,113.56 C98.70,113.43 98.84,113.24 99.00,113.00 C99.53,112.18 99.97,111.05 99.97,110.50 C99.97,110.21 99.85,110.14 99.66,110.25 C99.83,109.79 100.01,109.34 100.19,108.89 C100.38,108.83 100.68,108.52 101.02,108.00 C101.79,106.83 101.95,107.05 101.75,109.00 C101.61,110.38 101.14,111.77 100.70,112.09 C100.26,112.42 100.42,113.82 101.05,115.21 C102.29,117.94 104.83,118.35 106.59,116.11 C107.19,115.35 108.31,114.94 109.09,115.20 C109.98,115.50 111.51,113.91 113.26,110.85 C114.74,108.27 116.97,105.68 119.61,103.36 C114.92,107.58 111.43,112.87 109.88,118.47 C109.34,120.42 109.15,122.43 109.45,122.92 C109.76,123.41 112.25,122.73 115.00,121.41 C117.74,120.08 120.36,119.00 120.81,119.00 C121.26,119.00 123.40,118.14 125.57,117.10 C127.00,116.40 129.28,115.57 132.10,114.66 C129.74,115.56 128.72,116.30 128.47,117.10 C128.14,118.15 127.05,119.00 126.06,119.00 C125.07,119.00 121.96,120.83 119.15,123.07 C115.46,126.01 113.47,126.97 112.01,126.50 C110.71,126.09 109.05,126.60 107.36,127.93 C103.20,131.21 102.09,130.65 102.51,125.50 C102.91,120.62 102.81,120.49 99.93,122.04 C97.62,123.27 97.39,127.25 99.53,129.02 C100.56,129.88 100.92,131.48 100.64,133.96 L 100.21 137.64 L 104.60 136.52 C107.02,135.91 109.53,134.87 110.20,134.20 ZM 233.00 197.33 C234.01,197.26 234.96,197.18 235.83,197.10 C234.45,197.24 233.04,197.37 231.61,197.50 C203.83,200.05 190.23,202.25 179.75,205.89 C163.91,211.40 151.09,221.32 146.13,231.89 C143.83,236.81 143.50,238.77 143.50,247.75 C143.50,253.39 143.47,258.00 143.44,258.00 C142.44,258.00 137.51,251.19 135.83,247.50 C130.26,235.26 134.22,220.57 146.03,209.63 C158.81,197.80 176.67,190.36 201.78,186.40 C204.90,185.90 208.63,185.40 212.57,184.91 C212.89,184.97 213.35,185.00 213.89,185.00 C215.12,185.00 215.84,185.45 215.50,186.00 C215.16,186.55 215.58,187.00 216.44,187.00 C219.70,187.00 217.32,190.45 213.58,191.14 C210.67,191.69 210.59,193.68 213.46,194.40 C214.86,194.75 216.00,195.48 216.00,196.02 C216.00,196.56 217.01,197.05 218.25,197.12 C220.11,197.22 219.98,197.38 217.50,198.08 C214.84,198.83 214.96,198.88 218.50,198.51 C220.70,198.28 227.23,197.75 233.00,197.33 ZM 256.00 236.50 C255.32,237.32 254.25,238.00 253.63,238.00 C252.25,238.00 241.08,228.45 238.49,225.07 L 236.63 222.63 L 244.07 215.84 C248.15,212.10 252.27,209.03 253.21,209.02 C255.56,208.99 257.19,212.39 256.38,215.61 L 255.72 218.27 L 261.57 217.53 C271.28,216.32 279.97,212.84 286.24,207.92 C284.26,209.74 283.18,210.88 283.75,210.57 C284.60,210.10 285.00,210.69 285.00,212.44 C285.00,214.78 285.37,215.00 289.25,215.04 L 293.50 215.07 L 290.50 217.65 C289.32,218.65 288.74,219.24 288.62,219.46 C286.90,220.46 285.03,221.43 282.96,222.40 C276.22,225.56 263.24,229.00 258.07,229.00 C256.36,229.00 256.14,229.46 256.65,232.00 C257.01,233.78 256.74,235.61 256.00,236.50 ZM 137.56 200.98 C133.41,202.55 123.06,202.13 117.33,200.15 C112.09,198.34 105.88,194.21 102.83,190.53 C101.25,188.62 101.27,188.37 103.25,186.25 C105.82,183.49 108.14,183.39 110.43,185.92 C112.75,188.49 122.06,192.83 126.90,193.60 C129.05,193.94 132.41,193.69 134.40,193.03 C137.87,191.89 137.98,191.71 137.39,188.03 C137.05,185.89 137.33,182.50 138.04,180.35 C139.70,175.26 145.64,166.00 147.24,166.01 C147.93,166.01 149.42,167.70 150.53,169.77 L 152.57 173.52 L 150.33 176.83 C147.19,181.49 146.44,187.72 148.44,192.50 C149.32,194.62 149.70,196.62 149.27,196.94 C148.85,197.27 147.28,198.60 145.78,199.91 C143.64,201.79 142.76,202.05 141.65,201.13 C140.64,200.29 139.48,200.25 137.56,200.98 ZM 286.09 267.45 C282.37,269.38 281.27,269.38 277.50,267.46 C272.95,265.15 271.00,262.26 271.00,257.81 C271.00,248.89 281.72,244.56 288.08,250.92 C292.85,255.70 291.79,264.50 286.09,267.45 ZM 221.59 171.50 C221.24,170.12 221.20,169.00 221.48,169.00 C222.53,169.00 225.82,172.85 225.25,173.42 C224.48,174.19 230.39,174.17 232.41,173.40 C233.27,173.07 234.44,171.15 235.00,169.15 C235.57,167.12 237.24,164.64 238.76,163.57 C241.47,161.66 241.48,161.66 239.90,163.57 C239.02,164.63 237.95,166.18 237.53,167.00 C237.10,167.82 238.24,166.75 240.05,164.62 C241.43,163.00 243.36,161.44 245.49,160.09 C241.33,162.95 237.84,167.01 236.42,171.24 C235.61,173.64 234.55,174.67 232.41,175.13 C230.81,175.48 227.59,175.82 225.25,175.88 C221.45,175.99 221.00,175.76 221.00,173.70 C221.00,172.38 219.51,169.94 217.50,168.00 C215.57,166.13 214.00,163.91 214.01,163.05 C214.02,161.93 214.73,159.91 215.69,157.85 C214.60,160.38 213.96,162.37 214.53,161.80 C214.89,161.44 216.56,162.70 218.23,164.61 C222.08,169.00 221.03,170.30 216.74,166.43 C214.07,164.03 214.17,164.23 217.25,167.55 C219.31,169.77 221.00,172.13 221.00,172.79 C221.00,173.46 221.27,174.00 221.61,174.00 C221.94,174.00 221.93,172.88 221.59,171.50 ZM 238.34 196.86 C240.82,196.58 242.04,196.34 241.25,196.21 C238.87,195.84 238.14,194.11 240.25,193.84 C241.61,193.67 248.31,193.07 251.50,192.84 C254.06,192.65 256.33,193.27 257.13,194.36 C257.23,194.51 257.73,194.55 258.53,194.52 C252.42,195.36 245.73,196.12 238.34,196.86 ZM 223.78 183.65 C228.84,183.13 233.66,182.71 237.42,182.46 C237.68,182.56 238.39,182.70 239.50,182.90 L 243.50 183.62 L 240.28 184.56 C238.51,185.08 234.01,185.30 230.28,185.05 C223.52,184.60 223.51,184.60 228.00,183.90 C230.27,183.54 228.37,183.44 223.78,183.65 ZM 260.00 223.00 C260.00,222.45 259.13,222.00 258.06,222.00 C256.99,222.00 255.84,222.45 255.50,223.00 C255.15,223.57 255.99,224.00 257.44,224.00 C258.85,224.00 260.00,223.55 260.00,223.00 ZM 144.26 174.23 C143.79,173.01 143.56,173.04 142.80,174.40 C141.68,176.40 142.86,178.84 144.03,176.95 C144.46,176.25 144.56,175.03 144.26,174.23 ZM 320.56 172.89 C326.47,168.14 330.98,162.80 333.90,157.04 C331.39,162.41 327.68,167.29 322.95,171.04 C322.15,171.67 321.35,172.29 320.56,172.89 ZM 151.86 109.29 C161.91,106.89 171.70,105.00 175.51,105.00 C177.57,105.00 178.25,104.61 177.69,102.98 C178.25,104.60 177.58,105.00 175.55,105.00 C172.62,105.00 162.01,106.98 151.86,109.29 ZM 334.93 127.30 C332.98,123.33 330.01,119.89 325.90,116.74 C324.51,115.68 323.35,114.84 322.33,114.18 C327.16,116.94 332.30,121.91 334.63,126.69 C334.73,126.89 334.83,127.10 334.93,127.30 ZM 137.98 80.83 C141.38,79.99 143.99,79.66 144.52,80.19 C144.29,79.96 141.37,80.25 137.98,80.83 ZM 273.41 192.14 C279.89,190.81 286.88,189.16 291.48,187.73 C286.12,189.41 280.18,190.86 273.41,192.14 ZM 240.09 182.30 C241.99,182.21 243.44,182.19 244.25,182.25 C244.71,182.29 245.16,182.31 245.57,182.32 C244.51,182.37 243.18,182.38 241.75,182.34 C241.13,182.33 240.57,182.31 240.09,182.30 ZM 117.30 89.30 C119.08,88.20 120.97,87.15 123.00,86.15 C124.12,85.60 125.37,85.04 126.69,84.51 C123.47,85.91 120.20,87.58 117.30,89.30 ZM 103.78 102.09 C105.05,100.17 106.49,98.37 108.10,96.68 C106.65,98.33 105.12,100.25 103.78,102.09 ZM 296.92 213.25 C298.96,211.15 301.30,208.31 302.89,205.93 C301.00,208.76 299.08,211.14 296.92,213.25 ZM 293.59 199.63 C293.85,199.18 294.08,198.73 294.30,198.28 C294.65,197.55 294.97,196.93 295.30,196.38 C295.04,196.84 294.79,197.36 294.52,197.95 C294.30,198.45 293.98,199.02 293.59,199.63 ZM 292.51 187.41 C296.19,186.20 299.67,184.86 302.94,183.40 C299.69,184.87 296.24,186.20 292.51,187.41 ZM 219.50 151.62 C219.88,151.23 220.21,151.00 220.45,151.00 C220.49,151.00 220.53,151.00 220.57,151.00 C220.24,151.13 219.87,151.34 219.50,151.62 Z" fill="rgb(41,113,161)"/>
<path d="M 324.07 247.47 C320.41,249.36 318.29,249.35 314.78,247.44 C307.25,243.36 309.01,232.51 317.58,230.10 C321.39,229.03 326.34,230.90 328.02,234.04 C329.16,236.16 329.63,236.22 340.35,235.75 C351.64,235.24 361.00,232.83 361.00,230.43 C361.00,228.71 351.13,219.74 345.81,216.63 C341.35,214.01 340.98,213.96 338.11,215.44 C333.72,217.71 330.43,217.36 327.01,214.25 C322.83,210.44 322.24,206.42 325.21,202.00 C327.27,198.94 328.16,198.46 332.30,198.19 C336.38,197.93 337.43,198.28 339.86,200.70 C341.41,202.25 342.86,203.96 343.09,204.51 C343.31,205.05 346.65,207.06 350.50,208.96 C354.94,211.15 359.80,214.69 363.77,218.64 L 370.05 224.86 L 372.11 222.68 C375.11,219.52 378.54,212.31 380.00,206.11 C381.83,198.33 380.24,183.94 377.01,179.00 C375.34,176.45 371.08,182.57 371.04,187.58 C370.98,194.29 364.31,198.61 358.03,196.01 C348.90,192.23 350.67,179.71 360.56,178.11 C364.06,177.55 364.82,176.89 367.35,172.17 C371.04,165.31 371.88,157.12 369.59,150.39 C367.70,144.82 363.97,139.75 363.26,141.79 C361.43,147.00 352.49,152.93 346.39,152.98 L 343.29 153.00 L 344.29 147.95 C345.08,143.95 345.87,142.60 348.08,141.46 C352.45,139.20 354.00,136.19 354.00,129.97 C354.00,125.94 353.26,122.92 351.35,119.07 C348.13,112.62 339.69,104.06 334.00,101.50 C330.35,99.85 328.96,99.75 322.60,100.67 C314.47,101.84 306.10,105.60 301.25,110.27 C298.41,113.00 298.00,114.04 298.00,118.56 C298.00,122.81 297.53,124.20 295.36,126.36 C291.52,130.21 285.88,130.03 281.80,125.95 C279.10,123.25 278.81,122.43 279.31,118.70 C279.92,114.17 283.60,110.00 286.99,110.00 C288.02,110.00 291.28,107.59 294.22,104.65 C297.17,101.70 301.92,98.22 304.79,96.90 C307.65,95.59 310.00,94.19 310.00,93.80 C310.00,91.31 292.15,91.77 280.02,94.58 C249.76,101.58 223.32,122.16 206.25,152.00 C203.58,156.68 200.35,163.10 199.07,166.28 C196.18,173.46 193.65,175.50 185.94,176.85 C174.94,178.79 165.99,175.90 158.63,168.04 C154.18,163.28 151.04,155.92 150.97,150.07 C150.95,148.66 150.28,146.63 149.47,145.56 C147.12,142.45 147.60,136.31 150.41,133.50 C153.87,130.04 157.63,129.35 161.53,131.45 C167.71,134.78 168.79,141.89 163.96,147.40 C160.94,150.83 160.93,150.89 162.50,154.64 C164.52,159.50 166.60,161.76 171.21,164.11 C175.37,166.23 179.30,166.50 183.60,164.96 C185.95,164.12 187.44,162.01 191.42,153.88 C197.23,142.02 200.42,136.96 208.12,127.44 C222.68,109.41 242.44,94.62 262.15,87.00 C274.68,82.16 285.73,80.00 298.04,80.00 C316.44,80.00 327.96,83.03 341.36,91.38 C353.52,98.96 361.15,108.55 364.54,120.50 C365.86,125.15 367.43,127.75 371.50,132.04 C374.39,135.09 377.74,139.53 378.95,141.90 C381.39,146.68 383.96,157.52 383.98,163.15 C383.99,165.19 385.10,168.71 386.51,171.15 C392.80,182.07 394.90,199.14 391.41,211.07 C387.51,224.42 377.36,236.59 365.50,242.13 C357.66,245.79 346.80,247.41 335.77,246.59 C328.90,246.07 326.40,246.26 324.07,247.47 ZM 301.91 366.37 C296.54,367.44 278.56,366.28 274.87,364.61 C273.97,364.21 271.78,360.64 269.99,356.69 C264.68,344.94 260.91,337.62 259.15,335.62 C258.24,334.59 253.23,330.94 248.00,327.51 C242.77,324.09 237.31,319.98 235.85,318.39 C232.05,314.24 225.00,303.88 225.00,302.45 C225.00,301.78 226.97,300.74 229.37,300.14 C231.78,299.53 234.36,298.81 235.12,298.53 C235.99,298.21 237.60,299.90 239.50,303.12 C243.31,309.59 250.76,316.44 259.90,321.87 C268.11,326.75 270.18,329.46 276.05,343.00 C278.32,348.23 280.64,353.06 281.21,353.75 C281.80,354.46 284.52,355.00 287.52,355.00 L 292.79 355.00 L 290.75 348.75 C288.33,341.29 284.56,328.00 283.36,322.68 C282.57,319.16 281.98,318.63 276.00,316.10 C272.42,314.59 266.80,311.61 263.50,309.49 C257.67,305.74 247.00,296.39 247.00,295.04 C247.00,294.09 254.49,289.99 256.14,290.04 C256.89,290.06 260.42,292.30 264.00,295.03 C270.92,300.30 282.20,306.22 289.85,308.60 C292.41,309.40 298.19,310.33 302.70,310.67 C309.38,311.17 311.38,310.98 313.42,309.65 C320.64,304.92 318.05,298.00 309.06,298.00 C306.17,298.00 305.00,296.54 305.00,292.92 C305.00,291.28 305.74,291.00 310.04,291.00 C318.75,291.00 326.00,296.43 326.00,302.95 C326.00,305.87 327.12,305.53 332.24,301.02 C337.55,296.35 342.71,288.69 343.62,284.16 C344.40,280.27 344.15,280.41 351.40,279.53 L 357.29 278.82 L 356.67 282.66 C355.51,289.82 349.29,300.61 342.19,307.76 C331.34,318.69 320.75,322.96 304.40,322.99 L 296.30 323.00 L 297.08 327.93 C298.06,334.12 301.43,346.41 304.59,355.31 C307.37,363.17 306.84,365.38 301.91,366.37 ZM 355.66 272.60 C344.54,275.56 327.60,273.38 315.96,267.48 L 310.69 264.81 L 316.10 261.84 L 321.50 258.88 L 328.62 260.98 C333.23,262.34 338.59,263.09 343.76,263.10 C355.80,263.13 361.89,260.01 365.52,251.95 C366.50,249.78 367.75,248.00 368.29,248.00 C368.83,248.00 371.47,246.65 374.15,245.00 C376.84,243.35 379.22,242.00 379.45,242.00 C380.24,242.00 378.73,249.48 377.00,254.13 C373.49,263.58 366.36,269.75 355.66,272.60 Z" fill="rgb(236,127,51)"/>
<path d="M 0.00 196.00 L 0.00 0.00 L 234.50 0.00 L 469.00 0.00 L 469.00 196.00 L 469.00 392.00 L 234.50 392.00 L 0.00 392.00 L 0.00 196.00 ZM 301.91 366.37 C306.84,365.38 307.37,363.17 304.59,355.31 C301.43,346.41 298.06,334.12 297.08,327.93 L 296.30 323.00 L 304.40 322.99 C320.75,322.96 331.34,318.69 342.19,307.76 C349.29,300.61 355.51,289.82 356.67,282.66 L 357.29 278.82 L 351.40 279.53 C344.15,280.41 344.40,280.27 343.62,284.16 C342.71,288.69 337.55,296.35 332.24,301.02 C327.12,305.53 326.00,305.87 326.00,302.95 C326.00,296.43 318.75,291.00 310.04,291.00 C305.74,291.00 305.00,291.28 305.00,292.92 C305.00,296.54 306.17,298.00 309.06,298.00 C318.05,298.00 320.64,304.92 313.42,309.65 C311.38,310.98 309.38,311.17 302.70,310.67 C298.19,310.33 292.41,309.40 289.85,308.60 C282.20,306.22 270.92,300.30 264.00,295.03 C260.42,292.30 256.89,290.06 256.14,290.04 C254.49,289.99 247.00,294.09 247.00,295.04 C247.00,296.39 257.67,305.74 263.50,309.49 C266.80,311.61 272.42,314.59 276.00,316.10 C281.98,318.63 282.57,319.16 283.36,322.68 C284.56,328.00 288.33,341.29 290.75,348.75 L 292.79 355.00 L 287.52 355.00 C284.52,355.00 281.80,354.46 281.21,353.75 C280.64,353.06 278.32,348.23 276.05,343.00 C270.18,329.46 268.11,326.75 259.90,321.87 C250.76,316.44 243.31,309.59 239.50,303.12 C237.60,299.90 235.99,298.21 235.12,298.53 C234.36,298.81 231.78,299.53 229.37,300.14 C226.97,300.74 225.00,301.78 225.00,302.45 C225.00,303.88 232.05,314.24 235.85,318.39 C237.31,319.98 242.77,324.09 248.00,327.51 C253.23,330.94 258.24,334.59 259.15,335.62 C260.91,337.62 264.68,344.94 269.99,356.69 C271.78,360.64 273.97,364.21 274.87,364.61 C278.56,366.28 296.54,367.44 301.91,366.37 ZM 219.95 295.45 C235.08,292.58 250.13,286.30 265.79,276.34 L 271.08 272.98 L 267.80 268.74 C266.00,266.41 264.44,264.35 264.35,264.18 C264.26,264.00 262.35,265.06 260.11,266.55 C256.55,268.90 255.28,269.19 250.09,268.81 C243.00,268.30 235.74,264.28 232.29,258.97 C228.90,253.75 228.10,253.00 225.94,253.00 C222.94,253.00 221.41,257.17 223.01,261.01 C224.85,265.46 232.07,272.53 236.35,274.08 C238.36,274.81 240.00,275.73 240.00,276.13 C240.00,278.65 212.29,285.48 205.19,284.70 C190.62,283.11 184.41,255.37 198.36,254.19 C205.53,253.58 210.48,262.01 206.39,267.86 C204.86,270.04 204.92,270.30 207.64,273.14 L 210.49 276.13 L 212.71 273.55 C223.11,261.46 211.02,242.97 194.36,245.47 C183.81,247.05 178.88,261.81 184.41,275.25 C185.71,278.41 186.36,281.00 185.85,281.00 C183.73,281.00 176.50,276.58 172.32,272.72 C160.31,261.66 160.71,247.31 173.26,239.31 C182.60,233.36 204.71,228.03 220.28,227.98 C223.15,227.98 226.01,227.64 226.64,227.23 C227.27,226.83 227.94,224.08 228.14,221.12 L 228.50 215.74 L 215.50 216.27 C185.28,217.51 163.08,226.81 154.18,241.94 C151.80,245.98 151.50,247.52 151.52,255.50 C151.54,263.81 151.80,264.98 154.94,270.81 C165.36,290.14 192.91,300.58 219.95,295.45 ZM 355.66 272.60 C366.36,269.75 373.49,263.58 377.00,254.13 C378.73,249.48 380.24,242.00 379.45,242.00 C379.22,242.00 376.84,243.35 374.15,245.00 C371.47,246.65 368.83,248.00 368.29,248.00 C367.75,248.00 366.50,249.78 365.52,251.95 C361.89,260.01 355.80,263.13 343.76,263.10 C338.59,263.09 333.23,262.34 328.62,260.98 L 321.50 258.88 L 316.10 261.84 L 310.69 264.81 L 315.96 267.48 C327.60,273.38 344.54,275.56 355.66,272.60 ZM 286.09 267.45 C291.79,264.50 292.85,255.70 288.08,250.92 C281.72,244.56 271.00,248.89 271.00,257.81 C271.00,262.26 272.95,265.15 277.50,267.46 C281.27,269.38 282.37,269.38 286.09,267.45 ZM 143.50 247.75 C143.50,238.77 143.83,236.81 146.13,231.89 C151.09,221.32 163.91,211.40 179.75,205.89 C190.23,202.25 203.83,200.05 231.61,197.50 C282.84,192.80 302.76,187.03 322.95,171.04 C336.34,160.43 341.52,140.77 334.63,126.69 C331.15,119.57 321.44,112.00 315.79,112.00 C310.74,112.00 308.57,113.22 307.04,116.90 C306.07,119.23 306.07,120.67 307.00,123.50 C308.21,127.16 311.16,129.18 317.14,130.43 C320.74,131.18 323.41,137.76 322.52,143.69 C319.97,160.74 292.72,176.10 257.75,180.22 C252.39,180.85 248.00,181.63 248.00,181.96 C248.00,182.29 246.31,182.42 244.25,182.25 C239.71,181.89 215.19,184.28 201.78,186.40 C176.67,190.36 158.81,197.80 146.03,209.63 C134.22,220.57 130.26,235.26 135.83,247.50 C137.51,251.19 142.44,258.00 143.44,258.00 C143.47,258.00 143.50,253.39 143.50,247.75 ZM 129.77 251.75 C129.57,251.06 128.77,248.39 128.01,245.82 C126.57,240.96 125.26,240.04 119.79,240.01 C112.81,239.98 100.42,232.65 97.37,226.76 L 95.81 223.73 L 98.65 224.43 C100.22,224.82 107.23,225.38 114.23,225.69 C126.93,226.23 126.96,226.23 127.85,223.87 C130.43,216.98 131.26,217.51 117.74,217.38 C99.96,217.20 87.56,213.42 80.28,205.97 C75.23,200.81 74.38,197.72 76.61,192.71 C80.71,183.55 92.74,175.37 105.69,172.93 C111.45,171.84 112.07,171.91 114.58,173.88 C123.42,180.84 135.20,168.90 127.59,160.69 C126.26,159.25 124.05,157.80 122.67,157.45 C119.87,156.75 113.46,159.35 112.63,161.52 C112.34,162.27 110.39,163.16 108.30,163.50 C95.24,165.58 85.38,169.77 78.39,176.21 C75.95,178.45 73.76,180.09 73.51,179.84 C72.55,178.89 75.15,172.12 78.74,166.18 C87.83,151.18 101.42,141.13 124.00,132.70 C138.55,127.27 169.80,120.00 178.57,120.00 C180.85,120.00 180.87,120.07 179.40,123.57 C178.58,125.54 178.19,128.03 178.53,129.10 C179.42,131.91 183.56,134.33 186.31,133.64 C189.87,132.74 207.01,113.18 206.97,110.05 C206.92,106.35 205.61,105.07 194.25,97.60 C182.55,89.93 178.81,89.24 176.03,94.26 C174.64,96.78 174.66,97.30 176.25,100.09 C178.58,104.19 178.46,105.00 175.51,105.00 C167.56,105.00 133.55,113.24 125.57,117.10 C123.40,118.14 121.26,119.00 120.81,119.00 C120.36,119.00 117.74,120.08 115.00,121.41 C112.25,122.73 109.76,123.41 109.45,122.92 C109.15,122.43 109.34,120.42 109.88,118.47 C112.58,108.71 121.20,99.88 131.75,96.07 C134.91,94.93 138.09,93.66 138.81,93.25 C140.18,92.46 145.24,80.91 144.52,80.19 C143.27,78.94 130.37,82.51 123.00,86.15 C107.12,93.98 99.11,104.94 96.85,121.90 L 95.63 131.08 L 90.64 134.66 C77.69,143.97 68.79,154.85 63.81,167.46 C60.97,174.65 60.63,176.61 60.59,186.00 C60.57,193.81 60.99,197.48 62.27,200.35 C64.86,206.16 71.37,213.39 76.46,216.09 C80.42,218.19 81.19,219.15 82.48,223.56 C86.67,237.98 101.67,249.14 120.55,251.89 C129.23,253.15 130.19,253.14 129.77,251.75 ZM 324.07 247.47 C326.40,246.26 328.90,246.07 335.77,246.59 C346.80,247.41 357.66,245.79 365.50,242.13 C377.36,236.59 387.51,224.42 391.41,211.07 C394.90,199.14 392.80,182.07 386.51,171.15 C385.10,168.71 383.99,165.19 383.98,163.15 C383.96,157.52 381.39,146.68 378.95,141.90 C377.74,139.53 374.39,135.09 371.50,132.04 C367.43,127.75 365.86,125.15 364.54,120.50 C361.15,108.55 353.52,98.96 341.36,91.38 C327.96,83.03 316.44,80.00 298.04,80.00 C285.73,80.00 274.68,82.16 262.15,87.00 C242.44,94.62 222.68,109.41 208.12,127.44 C200.42,136.96 197.23,142.02 191.42,153.88 C187.44,162.01 185.95,164.12 183.60,164.96 C179.30,166.50 175.37,166.23 171.21,164.11 C166.60,161.76 164.52,159.50 162.50,154.64 C160.93,150.89 160.94,150.83 163.96,147.40 C168.79,141.89 167.71,134.78 161.53,131.45 C157.63,129.35 153.87,130.04 150.41,133.50 C147.60,136.31 147.12,142.45 149.47,145.56 C150.28,146.63 150.95,148.66 150.97,150.07 C151.04,155.92 154.18,163.28 158.63,168.04 C165.99,175.90 174.94,178.79 185.94,176.85 C193.65,175.50 196.18,173.46 199.07,166.28 C200.35,163.10 203.58,156.68 206.25,152.00 C223.32,122.16 249.76,101.58 280.02,94.58 C292.15,91.77 310.00,91.31 310.00,93.80 C310.00,94.19 307.65,95.59 304.79,96.90 C301.92,98.22 297.17,101.70 294.22,104.65 C291.28,107.59 288.02,110.00 286.99,110.00 C283.60,110.00 279.92,114.17 279.31,118.70 C278.81,122.43 279.10,123.25 281.80,125.95 C285.88,130.03 291.52,130.21 295.36,126.36 C297.53,124.20 298.00,122.81 298.00,118.56 C298.00,114.04 298.41,113.00 301.25,110.27 C306.10,105.60 314.47,101.84 322.60,100.67 C328.96,99.75 330.35,99.85 334.00,101.50 C339.69,104.06 348.13,112.62 351.35,119.07 C353.26,122.92 354.00,125.94 354.00,129.97 C354.00,136.19 352.45,139.20 348.08,141.46 C345.87,142.60 345.08,143.95 344.29,147.95 L 343.29 153.00 L 346.39 152.98 C352.49,152.93 361.43,147.00 363.26,141.79 C363.97,139.75 367.70,144.82 369.59,150.39 C371.88,157.12 371.04,165.31 367.35,172.17 C364.82,176.89 364.06,177.55 360.56,178.11 C350.67,179.71 348.90,192.23 358.03,196.01 C364.31,198.61 370.98,194.29 371.04,187.58 C371.08,182.57 375.34,176.45 377.01,179.00 C380.24,183.94 381.83,198.33 380.00,206.11 C378.54,212.31 375.11,219.52 372.11,222.68 L 370.05 224.86 L 363.77 218.64 C359.80,214.69 354.94,211.15 350.50,208.96 C346.65,207.06 343.31,205.05 343.09,204.51 C342.86,203.96 341.41,202.25 339.86,200.70 C337.43,198.28 336.38,197.93 332.30,198.19 C328.16,198.46 327.27,198.94 325.21,202.00 C322.24,206.42 322.83,210.44 327.01,214.25 C330.43,217.36 333.72,217.71 338.11,215.44 C340.98,213.96 341.35,214.01 345.81,216.63 C351.13,219.74 361.00,228.71 361.00,230.43 C361.00,232.83 351.64,235.24 340.35,235.75 C329.63,236.22 329.16,236.16 328.02,234.04 C326.34,230.90 321.39,229.03 317.58,230.10 C309.01,232.51 307.25,243.36 314.78,247.44 C318.29,249.35 320.41,249.36 324.07,247.47 ZM 256.00 236.50 C256.74,235.61 257.01,233.78 256.65,232.00 C256.14,229.46 256.36,229.00 258.07,229.00 C263.24,229.00 276.22,225.56 282.96,222.40 C292.49,217.93 297.81,213.53 302.89,205.93 C306.77,200.12 310.95,189.61 309.82,188.49 C309.53,188.20 306.41,189.25 302.89,190.83 C297.36,193.32 296.20,194.32 294.30,198.28 C289.56,208.13 276.80,215.63 261.57,217.53 L 255.72 218.27 L 256.38 215.61 C257.19,212.39 255.56,208.99 253.21,209.02 C252.27,209.03 248.15,212.10 244.07,215.84 L 236.63 222.63 L 238.49 225.07 C241.08,228.45 252.25,238.00 253.63,238.00 C254.25,238.00 255.32,237.32 256.00,236.50 ZM 137.56 200.98 C139.48,200.25 140.64,200.29 141.65,201.13 C142.76,202.05 143.64,201.79 145.78,199.91 C147.28,198.60 148.85,197.27 149.27,196.94 C149.70,196.62 149.32,194.62 148.44,192.50 C146.44,187.72 147.19,181.49 150.33,176.83 L 152.57 173.52 L 150.53 169.77 C149.42,167.70 147.93,166.01 147.24,166.01 C145.64,166.00 139.70,175.26 138.04,180.35 C137.33,182.50 137.05,185.89 137.39,188.03 C137.98,191.71 137.87,191.89 134.40,193.03 C132.41,193.69 129.05,193.94 126.90,193.60 C122.06,192.83 112.75,188.49 110.43,185.92 C108.14,183.39 105.82,183.49 103.25,186.25 C101.27,188.37 101.25,188.62 102.83,190.53 C105.88,194.21 112.09,198.34 117.33,200.15 C123.06,202.13 133.41,202.55 137.56,200.98 ZM 232.41 175.13 C234.55,174.67 235.61,173.64 236.42,171.24 C239.08,163.33 248.97,156.02 257.00,156.02 C262.13,156.02 270.10,160.13 274.15,164.86 L 277.68 168.99 L 282.59 167.47 C290.95,164.88 298.50,160.59 298.50,158.43 C298.50,156.74 297.76,156.50 292.64,156.47 C287.35,156.45 286.54,156.16 284.38,153.47 C282.36,150.97 282.03,149.56 282.24,144.50 L 282.50 138.50 L 277.07 135.85 C274.08,134.40 271.15,133.41 270.57,133.65 C269.98,133.90 268.27,135.88 266.76,138.05 C264.25,141.67 263.64,142.00 259.47,142.00 C255.09,142.00 254.80,141.81 251.81,137.00 C250.10,134.25 248.34,132.00 247.89,132.00 C247.44,132.00 244.55,132.94 241.47,134.10 L 235.86 136.19 L 236.11 141.60 C236.33,146.34 236.02,147.37 233.57,149.92 C231.24,152.36 230.05,152.81 226.39,152.67 C223.98,152.58 222.00,152.16 222.00,151.75 C222.00,151.34 221.30,151.00 220.45,151.00 C218.89,151.00 214.03,160.10 214.01,163.05 C214.00,163.91 215.57,166.13 217.50,168.00 C219.51,169.94 221.00,172.38 221.00,173.70 C221.00,175.76 221.45,175.99 225.25,175.88 C227.59,175.82 230.81,175.48 232.41,175.13 ZM 151.41 102.41 C157.37,100.91 157.81,100.60 159.00,97.01 C160.65,91.99 166.48,84.38 171.73,80.38 C179.11,74.74 186.11,72.66 197.91,72.57 L 208.33 72.50 L 213.10 67.50 C217.24,63.16 217.65,62.38 216.18,61.55 C213.46,60.00 190.41,59.59 184.10,60.98 C171.08,63.84 156.00,74.86 150.26,85.71 C147.59,90.75 144.00,100.77 144.00,103.18 C144.00,104.26 144.08,104.25 151.41,102.41 ZM 217.99 95.01 C219.01,94.46 220.94,91.65 222.27,88.76 C223.60,85.86 226.22,81.98 228.09,80.13 C232.58,75.69 241.95,71.28 248.68,70.43 C255.00,69.64 264.73,71.31 270.25,74.13 C274.19,76.14 274.58,76.12 289.00,73.30 L 291.50 72.81 L 288.00 69.85 C278.72,62.01 263.56,57.50 249.18,58.32 C241.20,58.77 238.77,59.36 232.38,62.40 C218.91,68.79 206.04,84.17 208.09,91.41 C208.54,93.02 209.50,94.70 210.21,95.15 C211.98,96.27 215.75,96.20 217.99,95.01 Z" fill="rgb(253,254,253)"/>
</g>
</svg>